<?xml version="1.0" encoding="utf-8"?>
<!-- Generator: Adobe Illustrator 25.2.1, SVG Export Plug-In . SVG Version: 6.00 Build 0)  -->
<svg version="1.1" id="레이어_1" xmlns="http://www.w3.org/2000/svg" xmlns:xlink="http://www.w3.org/1999/xlink" x="0px"
	 y="0px" viewBox="0 0 135 50" style="enable-background:new 0 0 135 50;" xml:space="preserve">
<style type="text/css">
	.st0{fill:#0A723F;}
</style>
<g>
	<g>
		<g>
			<path class="st0" d="M44.7,18.9c0.9,0.2,1.7,1,1.6,1.5h-7.7l-1.8,0.1l-0.2-0.9l2.6,0.1h0.7c0-0.6,0-1-0.1-1.8c1,0,2.2,0,3,0.3
				c0.3,0.1,0.5,0.3,0.5,0.5c0,0.2-0.2,0.3-0.3,0.6l0,0.4H44L44.7,18.9z M37.1,23.6c0-1.9,1.9-2.6,4.2-2.6c2.5,0,4.2,0.7,4.2,2.6
				v0.2c0,1.9-1.9,2.6-4.2,2.6s-4.2-0.7-4.2-2.6V23.6z M40.5,28.3l-2.4,0.1l-0.3-0.9l2.5,0.1l6.2-0.1l0.6-0.7
				c0.8,0.1,1.6,0.2,2.3,0.4c0.3,0.1,0.5,0.2,0.6,0.4c0,0.2-0.1,0.4-0.2,0.6V31c0,0.5-0.8,1-2,1c-0.8,0-1.2-0.1-1.2-0.5v-3.3
				L40.5,28.3z M40.1,23.7c0,1.1,0.3,1.8,1.2,1.8s1.2-0.6,1.2-1.8v-0.2c0-1.1-0.3-1.8-1.2-1.8s-1.2,0.6-1.2,1.8V23.7z M50.7,21.3
				c0.4,0.1,1,0.7,1.2,1.1c0.1,0.2,0,0.3-0.2,0.3h-1.9l0.1,2.2c0,0.9-0.9,1.2-2.1,1.3c-0.7,0.1-1-0.2-1-0.6c0-2,0.1-5.3,0-7.7
				c1,0,2.2,0.1,2.9,0.3c0.3,0.1,0.5,0.3,0.5,0.5c0,0.2-0.2,0.4-0.3,0.7l-0.1,2.5V22h0L50.7,21.3z"/>
			<path class="st0" d="M53.4,26.1c-0.1-0.1-0.1-0.2-0.1-0.3c1.3-2,2-3.6,2.5-6.3l0-1.3c0.9,0,1.9,0.2,2.5,0.4
				c0.5,0.1,0.6,0.4,0.6,0.6c0,0.2-0.1,0.3-0.3,0.6c-0.3,0.8-0.6,1.4-1,2.1c1.1,0.5,2.3,1.2,2.9,1.9c0.4,0.4,0.4,1.2,0.1,1.7
				c-0.3,0.4-0.7,0.5-1.2,0.5c-0.5,0-0.8-0.2-0.9-0.6c-0.3-1.1-0.7-2-1.3-2.8c-1,1.4-2.2,2.6-3.6,3.6C53.7,26.2,53.6,26.2,53.4,26.1
				z M59.6,26.8h3.1c3.2,0,5.1,0.6,5.1,2.7c0,2-1.9,2.6-5.1,2.6h-3.1c-3.2,0-5.1-0.6-5.1-2.6C54.5,27.3,56.4,26.8,59.6,26.8z
				 M64.6,29.4c0-1-0.7-1.8-2-1.9h-2.9c-1.3,0.1-2,0.9-2,1.9c0,1,0.7,1.8,2,1.9h2.9C63.9,31.2,64.6,30.4,64.6,29.4z M61.4,18
				c0.9,0,1.7,0.1,2.4,0.3c0.4,0.1,0.5,0.3,0.5,0.5c0,0.2-0.2,0.3-0.2,0.6L64,21.6h0.3H65c0-1.2,0-2.5,0-3.6c0.9,0,1.7,0.1,2.3,0.3
				c0.4,0.1,0.5,0.3,0.5,0.5c0,0.2-0.2,0.4-0.2,0.6l-0.1,2.7l0.1,3c0,0.9-0.5,1.1-1.6,1.1c-0.6,0-1-0.1-1-0.5c0-1,0-2,0-3.1h-0.6
				l-0.4,0l0.1,2.6c0,0.7-0.4,1.1-1.7,1.1c-0.7,0-1-0.2-1-0.5C61.6,23.4,61.5,20.9,61.4,18z"/>
			<path class="st0" d="M83.1,24.5c0.8,0.1,1.9,1.1,1.6,1.5l-12.3,0l-2.1,0L70,25.1l3,0.1h2.9v-2.1h-1.4c-0.3,0.2-0.9,0.4-1.7,0.5
				c-0.6,0.1-1.1,0-1.4-0.1c-0.2-0.1-0.3-0.3-0.3-0.7l0-2.2L71,18.4c0.7-0.1,2.5,0.1,3.4,0.5h6.8l0.9-0.8c0.8,0.2,1.7,1.2,1.5,1.5
				h-9.1v2.8h7l0.8-0.8c1,0.3,1.7,1.2,1.5,1.5h-4.7v2.1h3.2L83.1,24.5z M73.6,28.4l-2.5,0.1l-0.3-0.9l2.6,0.1l6.8-0.1l0.6-0.7
				c0.8,0.1,1.8,0.2,2.5,0.4c0.3,0.1,0.6,0.2,0.7,0.4c0.1,0.2-0.1,0.4-0.2,0.6v2.8c0,0.5-0.7,0.8-2.2,1c-0.8,0.1-1.1,0-1.1-0.4v-3.4
				L73.6,28.4z"/>
			<path class="st0" d="M87.2,24.9c-0.1-0.1-0.1-0.3,0-0.4v-2c0-0.5,0-0.9-0.1-1.4c1,0,1.8,0,2.7,0.1c0.2,0.1,0.4,0.1,0.4,0.2h2.2
				v-1.8l-2.5,0l-2.4,0.1l-0.3-0.9l2.3,0.1l2.8,0l0.4-0.6c0.9,0.1,1.6,0.2,2.4,0.4c0.3,0.1,0.5,0.2,0.6,0.4c0,0.2-0.1,0.4-0.2,0.6
				l0,0.7l0,1c0,0.6-0.7,0.8-2.2,0.8c-0.4,0-0.7,0-0.8-0.1h-2.4V24c2.1-0.1,5-0.3,7.2-0.6c0-1.8,0-3.7,0-5.4c1,0,2,0.1,3,0.4
				c0.3,0.1,0.5,0.3,0.5,0.5c0,0.2-0.2,0.4-0.3,0.7l-0.1,2.5l0,2.6c0,0.9-0.8,1.2-2.1,1.2c-0.7,0-1.1-0.2-1.1-0.6c0-0.4,0-0.9,0-1.3
				c-2.3,0.7-5.5,1.4-8.2,1.8C89.1,26,89,26,88.8,26.1c-0.2,0-0.4,0-0.6-0.2C87.9,25.6,87.5,25.2,87.2,24.9z M97.5,26.5
				c1.1,0,2.2,0.1,2.9,0.4c0.2,0.1,0.3,0.3,0.3,0.4c0,0.1-0.1,0.4-0.3,0.5l0,1.5l0,1.7c0,0.8-0.7,0.9-1.8,1
				c-0.9,0.1-1.2-0.1-1.2-0.4v0h-6.7c-0.4,0.4-1.1,0.5-1.7,0.5c-0.9,0-1.1-0.1-1.1-0.6v-2.9l-0.1-1.9c1,0,2.5,0,3.2,0.4l0,1.1v0.2
				h6.5v-0.3L97.5,26.5z M91,30.8h6.5v-1.7H91V30.8z"/>
			<path class="st0" d="M109.1,19.1l0.4-0.8c0.9,0.1,1.9,0.3,2.6,0.6c0.2,0.1,0.3,0.2,0.4,0.4c0,0.1-0.1,0.3-0.2,0.4l0,2.4l0.1,2.5
				c0,0.8-0.8,1.2-1.9,1.3c-0.8,0.1-1.2-0.1-1.2-0.4v-0.1h-2.3c-0.2,0.3-0.7,0.5-1.4,0.6c-0.9,0.1-1.4,0-1.4-0.7v-3.1l-0.1-3.6
				c0.7-0.1,2.7,0,3.1,0.5H109.1z M108,30.8h7l0.8-0.9c1,0.1,2.1,1.1,1.9,1.6H108c-0.4,0.3-1.3,0.4-2.1,0.4c-0.7,0-1.1-0.2-1.1-0.7
				v-2.4l0-2c1,0,2.3,0.1,3,0.3c0.2,0.1,0.4,0.3,0.5,0.4c0,0.2,0,0.3-0.2,0.5V30.8z M106.9,19.8v4.8h2.2v-4.8H106.9z M117.6,22
				c0.4,0.1,1,0.7,1.2,1.1c0.1,0.2,0,0.3-0.2,0.3h-1.9l0.1,3.4c0,0.9-0.9,1.2-2.1,1.3c-0.7,0.1-1-0.2-1-0.6c0-2.2,0.1-7.2,0-9.6
				c1,0,2.2,0.1,2.9,0.3c0.3,0.1,0.5,0.3,0.5,0.5c0,0.2-0.2,0.4-0.3,0.7l-0.1,3.3h0L117.6,22z"/>
			<path class="st0" d="M120.2,31.1c-0.1-0.1-0.1-0.2-0.1-0.3c1.3-3.1,2-5.7,2.3-10.8l0-1.6c0.9,0,1.7,0.1,2.4,0.3
				c0.6,0.1,0.8,0.4,0.8,0.6c0,0.2-0.1,0.3-0.2,0.6c-0.3,1.5-0.6,2.7-0.9,3.9c1.3,1.6,2.4,3.5,3,5.1c0.2,0.6-0.1,1.4-0.8,1.8
				c-0.5,0.2-1.1,0.2-1.5,0c-0.3-0.2-0.4-0.4-0.4-0.8c-0.1-1.4-0.3-3.1-0.7-4.7c-0.8,2.2-1.9,4-3.5,5.9
				C120.6,31.3,120.4,31.2,120.2,31.1z M126.1,24.4l-0.2-1l1.8,0l0.6,0c0-1.8,0-3.6-0.1-5.4c0.9,0,1.6,0.1,2.3,0.3
				c0.4,0.1,0.6,0.3,0.5,0.5c0,0.2-0.2,0.4-0.3,0.7l-0.1,5.3l0.1,5.9c0,0.9-0.4,1.2-1.6,1.3c-0.6,0.1-1-0.2-1-0.5
				c0-2.2,0.1-4.7,0.1-7.1l-0.6,0L126.1,24.4z M131.8,18c0.9,0,1.6,0.1,2.3,0.3c0.3,0.1,0.5,0.3,0.5,0.5c0,0.2-0.2,0.4-0.3,0.7
				l-0.1,5.3l0.1,5.8c0,0.9-0.5,1.2-1.6,1.3c-0.6,0-1-0.2-1-0.5C131.8,27.3,131.9,22.2,131.8,18z"/>
		</g>
	</g>
	<g>
		<g>
			<polygon class="st0" points="9.8,20.2 19.5,22.6 19.5,20.2 9.8,17.8 			"/>
			<polygon class="st0" points="0,20.2 9.8,22.6 9.8,20.2 0,17.8 			"/>
			<polygon class="st0" points="19.5,20.2 29.3,22.6 29.3,20.2 19.5,17.8 			"/>
		</g>
		<g>
			<polygon class="st0" points="9.8,25 19.5,27.4 19.5,25 9.8,22.6 			"/>
			<polygon class="st0" points="0,25 9.8,27.4 9.8,25 0,22.6 			"/>
			<polygon class="st0" points="19.5,25 29.3,27.4 29.3,25 19.5,22.6 			"/>
		</g>
		<g>
			<polygon class="st0" points="9.8,29.8 19.5,32.2 19.5,29.8 9.8,27.4 			"/>
			<polygon class="st0" points="0,29.8 9.8,32.2 9.8,29.8 0,27.4 			"/>
			<polygon class="st0" points="19.5,29.8 29.3,32.2 29.3,29.8 19.5,27.4 			"/>
		</g>
	</g>
</g>
</svg>
